<?xml version="1.0"?>
<svg xmlns="http://www.w3.org/2000/svg" xmlns:xlink="http://www.w3.org/1999/xlink" xmlns:ev="http://www.w3.org/2001/xml-events" version="1.1" baseProfile="full" viewBox="19 19 1323.43 1376.29">
	<g>
		<g>
			<polygon points="871.429,804.286,876.429,803.036,876.429,805.536," stroke="#000000" />
			<path fill="none" d=" M891.429,804.286 L871.429,804.286" stroke="#000000" />
		</g>
		<g>
			<polygon points="742.857,844.286,747.857,843.036,747.857,845.536," stroke="#000000" />
			<path fill="none" d=" M901.429,814.286 L901.429,844.286 M901.429,844.286 L742.857,844.286" stroke="#000000" />
		</g>
		<g>
			<polygon points="901.429,774.286,900.179,779.286,902.679,779.286," stroke="#000000" />
			<path fill="none" d=" M901.429,794.286 L901.429,779.286" stroke="#000000" />
		</g>
		<g>
			<polygon points="150,430,145,431.25,145,428.75," stroke="#000000" />
			<path fill="none" d=" M130,430 L150,430" stroke="#000000" />
		</g>
		<g>
			<polygon points="120,40,118.75,45,121.25,45," stroke="#000000" />
			<path fill="none" d=" M120,420 L120,45" stroke="#000000" />
		</g>
		<g>
			<polygon points="125.714,460,124.464,455,126.964,455," stroke="#000000" />
			<path fill="none" d=" M125.714,440 L125.714,455" stroke="#000000" />
		</g>
		<g>
			<polygon points="1122.86,195.714,1117.86,196.964,1117.86,194.464," stroke="#000000" />
			<path fill="none" d=" M330,195.714 L1122.86,195.714" stroke="#000000" />
		</g>
		<g>
			<polygon points="290,202.857,295,201.607,295,204.107," stroke="#000000" />
			<path fill="none" d=" M310,202.857 L290,202.857" stroke="#000000" />
		</g>
		<g>
			<polygon points="242.857,70,241.607,75,244.107,75," stroke="#000000" />
			<path fill="none" d=" M314.286,192.857 L314.286,90 M314.286,90 L242.857,90 M242.857,90 L242.857,75" stroke="#000000" />
		</g>
		<g>
			<polygon points="394.286,834.286,389.286,835.536,389.286,833.036," stroke="#000000" />
			<path fill="none" d=" M314.286,212.857 L314.286,834.286 M314.286,834.286 L394.286,834.286 M394.286,834.286 L394.286,834.286" stroke="#000000" />
		</g>
		<g>
			<polygon points="735.714,364.286,730.714,365.536,730.714,363.036," stroke="#000000" />
			<path fill="none" d=" M330,208.571 L350,208.571 M350,208.571 L350,364.286 M350,364.286 L735.714,364.286" stroke="#000000" />
		</g>
		<g>
			<polygon points="1052.86,470,1047.86,471.25,1047.86,468.75," stroke="#000000" />
			<path fill="none" d=" M984.286,470 L1052.86,470" stroke="#000000" />
		</g>
		<g>
			<polygon points="985.714,380,984.464,385,986.964,385," stroke="#000000" />
			<path fill="none" d=" M964.286,470 L932.857,470 M932.857,470 L932.857,400 M932.857,400 L985.714,400 M985.714,400 L985.714,385" stroke="#000000" />
		</g>
		<g>
			<polygon points="980,550,978.75,545,981.25,545," stroke="#000000" />
			<path fill="none" d=" M980,480 L980,545" stroke="#000000" />
		</g>
		<g>
			<polygon points="968.571,440,967.321,445,969.821,445," stroke="#000000" />
			<path fill="none" d=" M968.571,460 L968.571,445" stroke="#000000" />
		</g>
		<g>
			<polygon points="1025.71,680,1024.46,675,1026.96,675," stroke="#000000" />
			<path fill="none" d=" M1025.71,600 L1025.71,675" stroke="#000000" />
		</g>
		<g>
			<polygon points="1012.86,435.714,1017.86,434.464,1017.86,436.964," stroke="#000000" />
			<path fill="none" d=" M1032.86,580 L1032.86,435.714 M1032.86,435.714 L1012.86,435.714" stroke="#000000" />
		</g>
		<g>
			<polygon points="821.429,954.286,820.179,959.286,822.679,959.286," stroke="#000000" />
			<path fill="none" d=" M1031.43,590 L1021.43,590 M1021.43,590 L931.429,590 M931.429,590 L931.429,974.286 M931.429,974.286 L821.429,974.286 M821.429,974.286 L821.429,959.286" stroke="#000000" />
		</g>
		<g>
			<polygon points="1081.43,530,1080.18,535,1082.68,535," stroke="#000000" />
			<path fill="none" d=" M1040,580 L1040,550 M1040,550 L1081.43,550 M1081.43,550 L1081.43,535" stroke="#000000" />
		</g>
		<g>
			<polygon points="995.714,560,1000.71,558.75,1000.71,561.25," stroke="#000000" />
			<path fill="none" d=" M1024.29,580 L1024.29,560 M1024.29,560 L995.714,560" stroke="#000000" />
		</g>
		<g>
			<polygon points="215.714,1204.29,214.464,1199.29,216.964,1199.29," stroke="#000000" />
			<path fill="none" d=" M1041.43,590 L1141.43,590 M1141.43,590 L1141.43,1184.29 M1141.43,1184.29 L215.714,1184.29 M215.714,1184.29 L215.714,1199.29" stroke="#000000" />
		</g>
		<g>
			<polygon points="1054.29,680,1053.04,675,1055.54,675," stroke="#000000" />
			<path fill="none" d=" M1038.57,600 L1038.57,620 M1038.57,620 L1054.29,620 M1054.29,620 L1054.29,675" stroke="#000000" />
		</g>
		<g>
			<polygon points="60,30,55,31.25,55,28.75," stroke="#000000" />
			<path fill="none" d=" M40,30 L60,30 M60,30 L60,30" stroke="#000000" />
		</g>
		<g>
			<polygon points="240,954.286,245,953.036,245,955.536," stroke="#000000" />
			<path fill="none" d=" M358.571,954.286 L240,954.286" stroke="#000000" />
		</g>
		<g>
			<polygon points="388.571,994.286,383.571,995.536,383.571,993.036," stroke="#000000" />
			<path fill="none" d=" M368.571,964.286 L368.571,994.286 M368.571,994.286 L388.571,994.286" stroke="#000000" />
		</g>
		<g>
			<polygon points="441.429,954.286,436.429,955.536,436.429,953.036," stroke="#000000" />
			<path fill="none" d=" M378.571,954.286 L441.429,954.286" stroke="#000000" />
		</g>
		<g>
			<polygon points="461.429,994.286,466.429,993.036,466.429,995.536," stroke="#000000" />
			<path fill="none" d=" M594.286,994.286 L461.429,994.286" stroke="#000000" />
		</g>
		<g>
			<polygon points="598.571,844.286,597.321,849.286,599.821,849.286," stroke="#000000" />
			<path fill="none" d=" M598.571,984.286 L598.571,849.286" stroke="#000000" />
		</g>
		<g>
			<polygon points="1191.43,480,1190.18,485,1192.68,485," stroke="#000000" />
			<path fill="none" d=" M604.286,1004.29 L604.286,1024.29 M604.286,1024.29 L1191.43,1024.29 M1191.43,1024.29 L1191.43,485" stroke="#000000" />
		</g>
		<g>
			<polygon points="1060,700,1058.75,705,1061.25,705," stroke="#000000" />
			<path fill="none" d=" M614.286,994.286 L1060,994.286 M1060,994.286 L1060,705" stroke="#000000" />
		</g>
		<g>
			<polygon points="451.429,1024.29,450.179,1019.29,452.679,1019.29," stroke="#000000" />
			<path fill="none" d=" M451.429,1004.29 L451.429,1019.29" stroke="#000000" />
		</g>
		<g>
			<polygon points="408.571,994.286,413.571,993.036,413.571,995.536," stroke="#000000" />
			<path fill="none" d=" M441.429,994.286 L408.571,994.286 M408.571,994.286 L408.571,994.286" stroke="#000000" />
		</g>
		<g>
			<polygon points="451.429,964.286,450.179,969.286,452.679,969.286," stroke="#000000" />
			<path fill="none" d=" M451.429,984.286 L451.429,969.286" stroke="#000000" />
		</g>
		<g>
			<polygon points="1122.86,460,1121.61,455,1124.11,455," stroke="#000000" />
			<path fill="none" d=" M1102.86,370 L1122.86,370 M1122.86,370 L1122.86,455" stroke="#000000" />
		</g>
		<g>
			<polygon points="1092.86,510,1091.61,505,1094.11,505," stroke="#000000" />
			<path fill="none" d=" M1092.86,380 L1092.86,505" stroke="#000000" />
		</g>
		<g>
			<polygon points="1062.86,370,1067.86,368.75,1067.86,371.25," stroke="#000000" />
			<path fill="none" d=" M1082.86,370 L1062.86,370" stroke="#000000" />
		</g>
		<g>
			<polygon points="745.714,360,744.464,355,746.964,355," stroke="#000000" />
			<path fill="none" d=" M1092.86,360 L1092.86,340 M1092.86,340 L745.714,340 M745.714,340 L745.714,355" stroke="#000000" />
		</g>
		<g>
			<polygon points="521.429,954.286,516.429,955.536,516.429,953.036," stroke="#000000" />
			<path fill="none" d=" M501.429,954.286 L521.429,954.286" stroke="#000000" />
		</g>
		<g>
			<polygon points="461.429,954.286,466.429,953.036,466.429,955.536," stroke="#000000" />
			<path fill="none" d=" M481.429,954.286 L461.429,954.286" stroke="#000000" />
		</g>
		<g>
			<polygon points="1150,240,1148.75,245,1151.25,245," stroke="#000000" />
			<path fill="none" d=" M1150,260 L1150,245" stroke="#000000" />
		</g>
		<g>
			<polygon points="1121.43,640,1126.43,638.75,1126.43,641.25," stroke="#000000" />
			<path fill="none" d=" M1161.43,280 L1161.43,640 M1161.43,640 L1121.43,640" stroke="#000000" />
		</g>
		<g>
			<polygon points="742.857,690,747.857,688.75,747.857,691.25," stroke="#000000" />
			<path fill="none" d=" M1010,690 L742.857,690" stroke="#000000" />
		</g>
		<g>
			<polygon points="987.143,870,985.893,865,988.393,865," stroke="#000000" />
			<path fill="none" d=" M1014.29,700 L1014.29,850 M1014.29,850 L987.143,850 M987.143,850 L987.143,865" stroke="#000000" />
		</g>
		<g>
			<polygon points="1050,690,1045,691.25,1045,688.75," stroke="#000000" />
			<path fill="none" d=" M1030,690 L1050,690" stroke="#000000" />
		</g>
		<g>
			<polygon points="531.429,804.286,530.179,809.286,532.679,809.286," stroke="#000000" />
			<path fill="none" d=" M531.429,824.286 L531.429,809.286" stroke="#000000" />
		</g>
		<g>
			<polygon points="531.429,894.286,530.179,889.286,532.679,889.286," stroke="#000000" />
			<path fill="none" d=" M531.429,844.286 L531.429,889.286" stroke="#000000" />
		</g>
		<g>
			<polygon points="582.857,834.286,577.857,835.536,577.857,833.036," stroke="#000000" />
			<path fill="none" d=" M541.429,834.286 L582.857,834.286" stroke="#000000" />
		</g>
		<g>
			<polygon points="414.286,834.286,419.286,833.036,419.286,835.536," stroke="#000000" />
			<path fill="none" d=" M521.429,834.286 L414.286,834.286" stroke="#000000" />
		</g>
		<g>
			<polygon points="137.143,480,135.893,485,138.393,485," stroke="#000000" />
			<path fill="none" d=" M188.571,904.286 L188.571,500 M188.571,500 L137.143,500 M137.143,500 L137.143,485" stroke="#000000" />
		</g>
		<g>
			<polygon points="200,1204.29,198.75,1199.29,201.25,1199.29," stroke="#000000" />
			<path fill="none" d=" M200,924.286 L200,1199.29" stroke="#000000" />
		</g>
		<g>
			<polygon points="662.857,654.286,661.607,659.286,664.107,659.286," stroke="#000000" />
			<path fill="none" d=" M662.857,864.286 L662.857,659.286" stroke="#000000" />
		</g>
		<g>
			<polygon points="971.429,874.286,966.429,875.536,966.429,873.036," stroke="#000000" />
			<path fill="none" d=" M672.857,874.286 L971.429,874.286" stroke="#000000" />
		</g>
		<g>
			<polygon points="70,1314.29,68.75,1309.29,71.25,1309.29," stroke="#000000" />
			<path fill="none" d=" M70,1294.29 L70,1309.29" stroke="#000000" />
		</g>
		<g>
			<polygon points="70,40,68.75,45,71.25,45," stroke="#000000" />
			<path fill="none" d=" M70,1274.29 L70,45" stroke="#000000" />
		</g>
		<g>
			<polygon points="197.143,1284.29,192.143,1285.54,192.143,1283.04," stroke="#000000" />
			<path fill="none" d=" M80,1284.29 L197.143,1284.29" stroke="#000000" />
		</g>
		<g>
			<polygon points="955.714,530,954.464,535,956.964,535," stroke="#000000" />
			<path fill="none" d=" M955.714,630 L955.714,535" stroke="#000000" />
		</g>
		<g>
			<polygon points="1101.43,640,1096.43,641.25,1096.43,638.75," stroke="#000000" />
			<path fill="none" d=" M971.429,640 L1101.43,640" stroke="#000000" />
		</g>
		<g>
			<polygon points="974.286,870,973.036,865,975.536,865," stroke="#000000" />
			<path fill="none" d=" M967.143,650 L967.143,670 M967.143,670 L974.286,670 M974.286,670 L974.286,865" stroke="#000000" />
		</g>
		<g>
			<polygon points="901.429,754.286,900.179,749.286,902.679,749.286," stroke="#000000" />
			<path fill="none" d=" M951.429,640 L901.429,640 M901.429,640 L901.429,749.286" stroke="#000000" />
		</g>
		<g>
			<polygon points="570,1054.29,565,1055.54,565,1053.04," stroke="#000000" />
			<path fill="none" d=" M550,1084.29 L550,1054.29 M550,1054.29 L570,1054.29" stroke="#000000" />
		</g>
		<g>
			<polygon points="398.571,1004.29,397.321,1009.29,399.821,1009.29," stroke="#000000" />
			<path fill="none" d=" M545.714,1094.29 L398.571,1094.29 M398.571,1094.29 L398.571,1009.29" stroke="#000000" />
		</g>
		<g>
			<polygon points="600,1094.29,595,1095.54,595,1093.04," stroke="#000000" />
			<path fill="none" d=" M565.714,1094.29 L600,1094.29" stroke="#000000" />
		</g>
		<g>
			<polygon points="642.857,834.286,647.857,833.036,647.857,835.536," stroke="#000000" />
			<path fill="none" d=" M682.857,834.286 L642.857,834.286" stroke="#000000" />
		</g>
		<g>
			<polygon points="692.857,774.286,691.607,779.286,694.107,779.286," stroke="#000000" />
			<path fill="none" d=" M692.857,824.286 L692.857,779.286" stroke="#000000" />
		</g>
		<g>
			<polygon points="722.857,840,717.857,841.25,717.857,838.75," stroke="#000000" />
			<path fill="none" d=" M702.857,840 L722.857,840" stroke="#000000" />
		</g>
		<g>
			<polygon points="447.143,944.286,445.893,939.286,448.393,939.286," stroke="#000000" />
			<path fill="none" d=" M434.286,904.286 L434.286,924.286 M434.286,924.286 L447.143,924.286 M447.143,924.286 L447.143,939.286" stroke="#000000" />
		</g>
		<g>
			<polygon points="861.429,914.286,860.179,919.286,862.679,919.286," stroke="#000000" />
			<path fill="none" d=" M861.429,934.286 L861.429,919.286" stroke="#000000" />
		</g>
		<g>
			<polygon points="831.429,944.286,836.429,943.036,836.429,945.536," stroke="#000000" />
			<path fill="none" d=" M851.429,944.286 L831.429,944.286" stroke="#000000" />
		</g>
		<g>
			<polygon points="602.857,834.286,607.857,833.036,607.857,835.536," stroke="#000000" />
			<path fill="none" d=" M622.857,834.286 L602.857,834.286 M602.857,834.286 L602.857,834.286" stroke="#000000" />
		</g>
		<g>
			<polygon points="110,30,105,31.25,105,28.75," stroke="#000000" />
			<path fill="none" d=" M80,30 L110,30" stroke="#000000" />
		</g>
		<g>
			<polygon points="1251.43,290,1250.18,285,1252.68,285," stroke="#000000" />
			<path fill="none" d=" M1251.43,120 L1251.43,285" stroke="#000000" />
		</g>
		<g>
			<polygon points="861.429,110,866.429,108.75,866.429,111.25," stroke="#000000" />
			<path fill="none" d=" M1241.43,110 L861.429,110" stroke="#000000" />
		</g>
		<g>
			<polygon points="997.143,380,995.893,385,998.393,385," stroke="#000000" />
			<path fill="none" d=" M997.143,420 L997.143,385" stroke="#000000" />
		</g>
		<g>
			<polygon points="972.857,430,977.857,428.75,977.857,431.25," stroke="#000000" />
			<path fill="none" d=" M992.857,430 L972.857,430" stroke="#000000" />
		</g>
		<g>
			<polygon points="1301.43,1214.29,1296.43,1215.54,1296.43,1213.04," stroke="#000000" />
			<path fill="none" d=" M1251.43,1214.29 L1301.43,1214.29" stroke="#000000" />
		</g>
		<g>
			<polygon points="1241.43,1244.29,1240.18,1239.29,1242.68,1239.29," stroke="#000000" />
			<path fill="none" d=" M1241.43,1224.29 L1241.43,1239.29" stroke="#000000" />
		</g>
		<g>
			<polygon points="217.143,1214.29,222.143,1213.04,222.143,1215.54," stroke="#000000" />
			<path fill="none" d=" M1231.43,1214.29 L217.143,1214.29" stroke="#000000" />
		</g>
		<g>
			<polygon points="861.429,814.286,860.179,819.286,862.679,819.286," stroke="#000000" />
			<path fill="none" d=" M861.429,894.286 L861.429,819.286" stroke="#000000" />
		</g>
		<g>
			<polygon points="831.429,904.286,836.429,903.036,836.429,905.536," stroke="#000000" />
			<path fill="none" d=" M851.429,904.286 L831.429,904.286" stroke="#000000" />
		</g>
		<g>
			<polygon points="971.429,887.143,966.429,888.393,966.429,885.893," stroke="#000000" />
			<path fill="none" d=" M871.429,898.571 L951.429,898.571 M951.429,898.571 L951.429,887.143 M951.429,887.143 L971.429,887.143" stroke="#000000" />
		</g>
		<g>
			<polygon points="692.857,754.286,691.607,749.286,694.107,749.286," stroke="#000000" />
			<path fill="none" d=" M692.857,694.286 L692.857,749.286" stroke="#000000" />
		</g>
		<g>
			<polygon points="722.857,684.286,717.857,685.536,717.857,683.036," stroke="#000000" />
			<path fill="none" d=" M702.857,684.286 L722.857,684.286" stroke="#000000" />
		</g>
		<g>
			<polygon points="697.143,654.286,695.893,659.286,698.393,659.286," stroke="#000000" />
			<path fill="none" d=" M697.143,674.286 L697.143,659.286" stroke="#000000" />
		</g>
		<g>
			<polygon points="1271.43,1284.29,1266.43,1285.54,1266.43,1283.04," stroke="#000000" />
			<path fill="none" d=" M217.143,1284.29 L1271.43,1284.29" stroke="#000000" />
		</g>
		<g>
			<polygon points="207.143,1314.29,205.893,1309.29,208.393,1309.29," stroke="#000000" />
			<path fill="none" d=" M207.143,1294.29 L207.143,1309.29" stroke="#000000" />
		</g>
		<g>
			<polygon points="207.143,1224.29,205.893,1229.29,208.393,1229.29," stroke="#000000" />
			<path fill="none" d=" M207.143,1274.29 L207.143,1229.29" stroke="#000000" />
		</g>
		<g>
			<polygon points="752.857,764.286,747.857,765.536,747.857,763.036," stroke="#000000" />
			<path fill="none" d=" M702.857,764.286 L752.857,764.286" stroke="#000000" />
		</g>
		<g>
			<polygon points="364.286,624.286,363.036,629.286,365.536,629.286," stroke="#000000" />
			<path fill="none" d=" M682.857,764.286 L364.286,764.286 M364.286,764.286 L364.286,629.286" stroke="#000000" />
		</g>
		<g>
			<polygon points="525.714,964.286,524.464,969.286,526.964,969.286," stroke="#000000" />
			<path fill="none" d=" M525.714,1124.29 L525.714,969.286" stroke="#000000" />
		</g>
		<g>
			<polygon points="1251.43,310,1250.18,315,1252.68,315," stroke="#000000" />
			<path fill="none" d=" M525.714,1144.29 L525.714,1164.29 M525.714,1164.29 L1251.43,1164.29 M1251.43,1164.29 L1251.43,315" stroke="#000000" />
		</g>
		<g>
			<polygon points="647.143,564.286,642.143,565.536,642.143,563.036," stroke="#000000" />
			<path fill="none" d=" M515.714,1134.29 L334.286,1134.29 M334.286,1134.29 L334.286,564.286 M334.286,564.286 L647.143,564.286" stroke="#000000" />
		</g>
		<g>
			<polygon points="600,1134.29,595,1135.54,595,1133.04," stroke="#000000" />
			<path fill="none" d=" M535.714,1134.29 L600,1134.29" stroke="#000000" />
		</g>
		<g>
			<polygon points="851.429,804.286,846.429,805.536,846.429,803.036," stroke="#000000" />
			<path fill="none" d=" M762.857,774.286 L762.857,804.286 M762.857,804.286 L851.429,804.286" stroke="#000000" />
		</g>
		<g>
			<polygon points="762.857,440,761.607,445,764.107,445," stroke="#000000" />
			<path fill="none" d=" M762.857,754.286 L762.857,445" stroke="#000000" />
		</g>
		<g>
			<polygon points="891.429,764.286,886.429,765.536,886.429,763.036," stroke="#000000" />
			<path fill="none" d=" M772.857,764.286 L891.429,764.286" stroke="#000000" />
		</g>
		<g>
			<polygon points="1311.43,1224.29,1310.18,1229.29,1312.68,1229.29," stroke="#000000" />
			<path fill="none" d=" M1291.43,1284.29 L1311.43,1284.29 M1311.43,1284.29 L1311.43,1229.29" stroke="#000000" />
		</g>
		<g>
			<polygon points="1281.43,700,1280.18,705,1282.68,705," stroke="#000000" />
			<path fill="none" d=" M1281.43,1274.29 L1281.43,705" stroke="#000000" />
		</g>
		<g>
			<polygon points="952.857,430,947.857,431.25,947.857,428.75," stroke="#000000" />
			<path fill="none" d=" M867.143,794.286 L867.143,430 M867.143,430 L952.857,430" stroke="#000000" />
		</g>
		<g>
			<polygon points="1138.57,200,1137.32,205,1139.82,205," stroke="#000000" />
			<path fill="none" d=" M1138.57,220 L1138.57,205" stroke="#000000" />
		</g>
		<g>
			<polygon points="1117.14,630,1115.89,625,1118.39,625," stroke="#000000" />
			<path fill="none" d=" M1117.14,480 L1117.14,625" stroke="#000000" />
		</g>
		<g>
			<polygon points="1181.43,470,1176.43,471.25,1176.43,468.75," stroke="#000000" />
			<path fill="none" d=" M1132.86,470 L1181.43,470" stroke="#000000" />
		</g>
		<g>
			<polygon points="1072.86,470,1077.86,468.75,1077.86,471.25," stroke="#000000" />
			<path fill="none" d=" M1112.86,470 L1072.86,470" stroke="#000000" />
		</g>
		<g>
			<polygon points="574.286,1044.29,573.036,1039.29,575.536,1039.29," stroke="#000000" />
			<path fill="none" d=" M811.429,944.286 L574.286,944.286 M574.286,944.286 L574.286,1039.29" stroke="#000000" />
		</g>
		<g>
			<polygon points="821.429,914.286,820.179,919.286,822.679,919.286," stroke="#000000" />
			<path fill="none" d=" M821.429,934.286 L821.429,919.286" stroke="#000000" />
		</g>
		<g>
			<polygon points="851.429,120,850.179,125,852.679,125," stroke="#000000" />
			<path fill="none" d=" M1127.14,180 L1127.14,160 M1127.14,160 L851.429,160 M851.429,160 L851.429,125" stroke="#000000" />
		</g>
		<g>
			<polygon points="190,430,185,431.25,185,428.75," stroke="#000000" />
			<path fill="none" d=" M170,430 L190,430" stroke="#000000" />
		</g>
		<g>
			<polygon points="235.714,50,234.464,45,236.964,45," stroke="#000000" />
			<path fill="none" d=" M130,30 L235.714,30 M235.714,30 L235.714,45" stroke="#000000" />
		</g>
		<g>
			<polygon points="230,70,228.75,75,231.25,75," stroke="#000000" />
			<path fill="none" d=" M230,944.286 L230,75" stroke="#000000" />
		</g>
		<g>
			<polygon points="207.143,1204.29,205.893,1199.29,208.393,1199.29," stroke="#000000" />
			<path fill="none" d=" M224.286,964.286 L224.286,984.286 M224.286,984.286 L207.143,984.286 M207.143,984.286 L207.143,1199.29" stroke="#000000" />
		</g>
		<g>
			<polygon points="531.429,914.286,530.179,919.286,532.679,919.286," stroke="#000000" />
			<path fill="none" d=" M531.429,944.286 L531.429,919.286" stroke="#000000" />
		</g>
		<g>
			<polygon points="1311.43,310,1310.18,315,1312.68,315," stroke="#000000" />
			<path fill="none" d=" M1311.43,1204.29 L1311.43,315" stroke="#000000" />
		</g>
		<g>
			<polygon points="657.143,574.286,655.893,579.286,658.393,579.286," stroke="#000000" />
			<path fill="none" d=" M657.143,634.286 L657.143,579.286" stroke="#000000" />
		</g>
		<g>
			<polygon points="458.571,944.286,457.321,939.286,459.821,939.286," stroke="#000000" />
			<path fill="none" d=" M647.143,644.286 L458.571,644.286 M458.571,644.286 L458.571,939.286" stroke="#000000" />
		</g>
		<g>
			<polygon points="687.143,644.286,682.143,645.536,682.143,643.036," stroke="#000000" />
			<path fill="none" d=" M667.143,644.286 L687.143,644.286" stroke="#000000" />
		</g>
		<g>
			<polygon points="610,1084.29,608.75,1079.29,611.25,1079.29," stroke="#000000" />
			<path fill="none" d=" M590,1060 L610,1060 M610,1060 L610,1079.29" stroke="#000000" />
		</g>
		<g>
			<polygon points="1077.14,520,1072.14,521.25,1072.14,518.75," stroke="#000000" />
			<path fill="none" d=" M960,520 L1077.14,520" stroke="#000000" />
		</g>
		<g>
			<polygon points="811.429,904.286,806.429,905.536,806.429,903.036," stroke="#000000" />
			<path fill="none" d=" M541.429,904.286 L811.429,904.286" stroke="#000000" />
		</g>
		<g>
			<polygon points="245.714,60,250.714,58.75,250.714,61.25," stroke="#000000" />
			<path fill="none" d=" M1097.14,520 L1341.43,520 M1341.43,520 L1341.43,60 M1341.43,60 L245.714,60" stroke="#000000" />
		</g>
		<g>
			<polygon points="732.857,834.286,731.607,829.286,734.107,829.286," stroke="#000000" />
			<path fill="none" d=" M732.857,814.286 L732.857,829.286" stroke="#000000" />
		</g>
		<g>
			<polygon points="827.143,430,822.143,431.25,822.143,428.75," stroke="#000000" />
			<path fill="none" d=" M807.143,430 L827.143,430" stroke="#000000" />
		</g>
		<g>
			<polygon points="767.143,430,772.143,428.75,772.143,431.25," stroke="#000000" />
			<path fill="none" d=" M787.143,430 L767.143,430" stroke="#000000" />
		</g>
		<g>
			<polygon points="732.857,714.286,731.607,709.286,734.107,709.286," stroke="#000000" />
			<path fill="none" d=" M732.857,694.286 L732.857,709.286" stroke="#000000" />
		</g>
		<g>
			<polygon points="1271.43,690,1266.43,691.25,1266.43,688.75," stroke="#000000" />
			<path fill="none" d=" M1231.43,690 L1271.43,690" stroke="#000000" />
		</g>
		<g>
			<polygon points="1070,690,1075,688.75,1075,691.25," stroke="#000000" />
			<path fill="none" d=" M1211.43,690 L1070,690" stroke="#000000" />
		</g>
		<g>
			<polygon points="992.857,360,991.607,355,994.107,355," stroke="#000000" />
			<path fill="none" d=" M1241.43,300 L992.857,300 M992.857,300 L992.857,355" stroke="#000000" />
		</g>
		<g>
			<polygon points="1301.43,300,1296.43,301.25,1296.43,298.75," stroke="#000000" />
			<path fill="none" d=" M1261.43,300 L1301.43,300" stroke="#000000" />
		</g>
		<g>
			<polygon points="991.429,880,996.429,878.75,996.429,881.25," stroke="#000000" />
			<path fill="none" d=" M1111.43,650 L1111.43,880 M1111.43,880 L991.429,880" stroke="#000000" />
		</g>
		<g>
			<polygon points="667.143,564.286,672.143,563.036,672.143,565.536," stroke="#000000" />
			<path fill="none" d=" M837.143,440 L837.143,564.286 M837.143,564.286 L667.143,564.286" stroke="#000000" />
		</g>
		<g>
			<polygon points="842.857,120,841.607,125,844.107,125," stroke="#000000" />
			<path fill="none" d=" M842.857,420 L842.857,125" stroke="#000000" />
		</g>
		<g>
			<polygon points="197.143,1214.29,192.143,1215.54,192.143,1213.04," stroke="#000000" />
			<path fill="none" d=" M225.714,60 L90,60 M90,60 L90,1214.29 M90,1214.29 L197.143,1214.29" stroke="#000000" />
		</g>
		<g>
			<polygon points="410,824.286,408.75,819.286,411.25,819.286," stroke="#000000" />
			<path fill="none" d=" M438.571,624.286 L438.571,804.286 M438.571,804.286 L410,804.286 M410,804.286 L410,819.286" stroke="#000000" />
		</g>
		<g>
			<polygon points="414.286,614.286,419.286,613.036,419.286,615.536," stroke="#000000" />
			<path fill="none" d=" M434.286,614.286 L414.286,614.286" stroke="#000000" />
		</g>
		<g>
			<polygon points="738.571,380,737.321,385,739.821,385," stroke="#000000" />
			<path fill="none" d=" M450,604.286 L450,584.286 M450,584.286 L627.143,584.286 M627.143,584.286 L627.143,400 M627.143,400 L738.571,400 M738.571,400 L738.571,385" stroke="#000000" />
		</g>
		<g>
			<polygon points="697.143,634.286,695.893,629.286,698.393,629.286," stroke="#000000" />
			<path fill="none" d=" M454.286,614.286 L697.143,614.286 M697.143,614.286 L697.143,629.286" stroke="#000000" />
		</g>
		<g>
			<polygon points="1002.86,370,1007.86,368.75,1007.86,371.25," stroke="#000000" />
			<path fill="none" d=" M1042.86,370 L1002.86,370" stroke="#000000" />
		</g>
		<g>
			<polygon points="1191.43,460,1190.18,455,1192.68,455," stroke="#000000" />
			<path fill="none" d=" M370,604.286 L370,320 M370,320 L1191.43,320 M1191.43,320 L1191.43,455" stroke="#000000" />
		</g>
		<g>
			<polygon points="394.286,614.286,389.286,615.536,389.286,613.036," stroke="#000000" />
			<path fill="none" d=" M374.286,614.286 L394.286,614.286 M394.286,614.286 L394.286,614.286" stroke="#000000" />
		</g>
		<g>
			<polygon points="841.429,110,836.429,111.25,836.429,108.75," stroke="#000000" />
			<path fill="none" d=" M354.286,614.286 L250,614.286 M250,614.286 L250,110 M250,110 L841.429,110" stroke="#000000" />
		</g>
		<g>
			<polygon points="858.571,120,857.321,125,859.821,125," stroke="#000000" />
			<path fill="none" d=" M1201.43,470 L1221.43,470 M1221.43,470 L1221.43,140 M1221.43,140 L858.571,140 M858.571,140 L858.571,125" stroke="#000000" />
		</g>
		<g>
			<polygon points="398.571,984.286,397.321,979.286,399.821,979.286," stroke="#000000" />
			<path fill="none" d=" M398.571,844.286 L398.571,979.286" stroke="#000000" />
		</g>
		<g>
			<polygon points="747.143,430,742.143,431.25,742.143,428.75," stroke="#000000" />
			<path fill="none" d=" M210,430 L747.143,430" stroke="#000000" />
		</g>
		<g>
			<polygon points="200,460,198.75,455,201.25,455," stroke="#000000" />
			<path fill="none" d=" M200,440 L200,455" stroke="#000000" />
		</g>
		<g>
			<polygon points="971.429,1094.29,966.429,1095.54,966.429,1093.04," stroke="#000000" />
			<path fill="none" d=" M620,1094.29 L971.429,1094.29" stroke="#000000" />
		</g>
		<g>
			<polygon points="610,1124.29,608.75,1119.29,611.25,1119.29," stroke="#000000" />
			<path fill="none" d=" M610,1104.29 L610,1119.29" stroke="#000000" />
		</g>
		<g>
			<polygon points="981.429,1084.29,980.179,1079.29,982.679,1079.29," stroke="#000000" />
			<path fill="none" d=" M981.429,890 L981.429,1079.29" stroke="#000000" />
		</g>
		<g>
			<polygon points="755.714,370,760.714,368.75,760.714,371.25," stroke="#000000" />
			<path fill="none" d=" M982.857,370 L755.714,370" stroke="#000000" />
		</g>
		<g>
			<polygon points="751.429,380,750.179,385,752.679,385," stroke="#000000" />
			<path fill="none" d=" M751.429,420 L751.429,385" stroke="#000000" />
		</g>
		<g>
			<polygon points="1311.43,290,1310.18,285,1312.68,285," stroke="#000000" />
			<path fill="none" d=" M851.429,100 L851.429,80 M851.429,80 L1311.43,80 M1311.43,80 L1311.43,285" stroke="#000000" />
		</g>
		<g>
			<polygon points="620,1134.29,625,1133.04,625,1135.54," stroke="#000000" />
			<path fill="none" d=" M981.429,1104.29 L981.429,1134.29 M981.429,1134.29 L620,1134.29" stroke="#000000" />
		</g>
		<g>
			<polygon points="1011.43,1094.29,1006.43,1095.54,1006.43,1093.04," stroke="#000000" />
			<path fill="none" d=" M991.429,1094.29 L1011.43,1094.29" stroke="#000000" />
		</g>
	</g>
	<g>
		<rect x="891.42857142857167" y="794.28571428571445" width="20" height="20" />
	</g>
	<g>
		<rect x="110.00000000000011" y="420.00000000000006" width="20" height="20" />
	</g>
	<g>
		<rect x="310.00000000000011" y="192.85714285714289" width="20" height="20" />
	</g>
	<g>
		<rect x="964.28571428571456" y="460.00000000000011" width="20" height="20" />
	</g>
	<g>
		<rect x="1021.4285714285718" y="580.00000000000011" width="20" height="20" />
	</g>
	<g>
		<rect x="20" y="20" width="20" height="20" />
	</g>
	<g>
		<rect x="358.57142857142867" y="944.28571428571445" width="20" height="20" />
	</g>
	<g>
		<rect x="20" y="1374.2857142857147" width="20" height="20" />
	</g>
	<g>
		<rect x="594.28571428571445" y="984.28571428571445" width="20" height="20" />
	</g>
	<g>
		<rect x="441.42857142857156" y="984.28571428571445" width="20" height="20" />
	</g>
	<g>
		<rect x="1082.8571428571431" y="360.00000000000006" width="20" height="20" />
	</g>
	<g>
		<rect x="481.42857142857156" y="944.28571428571445" width="20" height="20" />
	</g>
	<g>
		<rect x="1145.714285714286" y="260" width="20" height="20" />
	</g>
	<g>
		<rect x="1010.0000000000002" y="680.00000000000011" width="20" height="20" />
	</g>
	<g>
		<rect x="521.42857142857156" y="824.28571428571445" width="20" height="20" />
	</g>
	<g>
		<rect x="184.28571428571433" y="904.28571428571445" width="20" height="20" />
	</g>
	<g>
		<rect x="652.85714285714312" y="864.28571428571445" width="20" height="20" />
	</g>
	<g>
		<rect x="60.000000000000114" y="1274.2857142857147" width="20" height="20" />
	</g>
	<g>
		<rect x="60.000000000000114" y="1314.2857142857147" width="20" height="20" />
	</g>
	<g>
		<rect x="951.42857142857167" y="630.00000000000011" width="20" height="20" />
	</g>
	<g>
		<rect x="545.71428571428589" y="1084.2857142857144" width="20" height="20" />
	</g>
	<g>
		<rect x="682.85714285714312" y="824.28571428571445" width="20" height="20" />
	</g>
	<g>
		<rect x="418.57142857142873" y="884.28571428571445" width="20" height="20" />
	</g>
	<g>
		<rect x="851.42857142857167" y="934.28571428571445" width="20" height="20" />
	</g>
	<g>
		<rect x="622.85714285714312" y="824.28571428571445" width="20" height="20" />
	</g>
	<g>
		<rect x="60.000000000000114" y="20" width="20" height="20" />
	</g>
	<g>
		<rect x="1241.4285714285718" y="100" width="20" height="20" />
	</g>
	<g>
		<rect x="992.85714285714312" y="420.00000000000006" width="20" height="20" />
	</g>
	<g>
		<rect x="1231.4285714285718" y="1204.2857142857147" width="20" height="20" />
	</g>
	<g>
		<rect x="851.42857142857167" y="894.28571428571445" width="20" height="20" />
	</g>
	<g>
		<rect x="682.85714285714312" y="674.28571428571445" width="20" height="20" />
	</g>
	<g>
		<rect x="197.14285714285722" y="1274.2857142857147" width="20" height="20" />
	</g>
	<g>
		<rect x="682.85714285714312" y="754.28571428571445" width="20" height="20" />
	</g>
	<g>
		<rect x="515.71428571428589" y="1124.2857142857144" width="20" height="20" />
	</g>
	<g>
		<rect x="521.42857142857156" y="784.28571428571445" width="20" height="20" />
	</g>
	<g>
		<rect x="752.85714285714312" y="754.28571428571445" width="20" height="20" />
	</g>
	<g>
		<rect x="80" y="1374.2857142857147" width="20" height="20" />
	</g>
	<g>
		<rect x="1271.4285714285718" y="1274.2857142857147" width="20" height="20" />
	</g>
	<g>
		<rect x="851.42857142857167" y="794.28571428571445" width="20" height="20" />
	</g>
	<g>
		<rect x="1134.2857142857147" y="220" width="20" height="20" />
	</g>
	<g>
		<rect x="1112.8571428571431" y="460.00000000000011" width="20" height="20" />
	</g>
	<g>
		<rect x="811.42857142857167" y="934.28571428571445" width="20" height="20" />
	</g>
	<g>
		<rect x="1122.8571428571431" y="180" width="20" height="20" />
	</g>
	<g>
		<rect x="150.00000000000011" y="420.00000000000006" width="20" height="20" />
	</g>
	<g>
		<rect x="110.00000000000011" y="20" width="20" height="20" />
	</g>
	<g>
		<rect x="220.00000000000011" y="944.28571428571445" width="20" height="20" />
	</g>
	<g>
		<rect x="521.42857142857156" y="944.28571428571445" width="20" height="20" />
	</g>
	<g>
		<rect x="1301.4285714285718" y="1204.2857142857147" width="20" height="20" />
	</g>
	<g>
		<rect x="647.14285714285734" y="634.28571428571445" width="20" height="20" />
	</g>
	<g>
		<rect x="570.00000000000023" y="1044.2857142857144" width="20" height="20" />
	</g>
	<g>
		<rect x="940.00000000000023" y="510.00000000000011" width="20" height="20" />
	</g>
	<g>
		<rect x="521.42857142857156" y="894.28571428571445" width="20" height="20" />
	</g>
	<g>
		<rect x="1077.1428571428573" y="510.00000000000011" width="20" height="20" />
	</g>
	<g>
		<rect x="140" y="1374.2857142857147" width="20" height="20" />
	</g>
	<g>
		<rect x="811.42857142857167" y="894.28571428571445" width="20" height="20" />
	</g>
	<g>
		<rect x="722.85714285714312" y="794.28571428571445" width="20" height="20" />
	</g>
	<g>
		<rect x="787.14285714285734" y="420.00000000000006" width="20" height="20" />
	</g>
	<g>
		<rect x="197.14285714285722" y="1314.2857142857147" width="20" height="20" />
	</g>
	<g>
		<rect x="441.42857142857156" y="1024.2857142857144" width="20" height="20" />
	</g>
	<g>
		<rect x="722.85714285714312" y="674.28571428571445" width="20" height="20" />
	</g>
	<g>
		<rect x="1211.4285714285718" y="680.00000000000011" width="20" height="20" />
	</g>
	<g>
		<rect x="582.857142857143" y="824.28571428571445" width="20" height="20" />
	</g>
	<g>
		<rect x="1241.4285714285718" y="290.00000000000006" width="20" height="20" />
	</g>
	<g>
		<rect x="121.42857142857144" y="460.00000000000011" width="20" height="20" />
	</g>
	<g>
		<rect x="722.85714285714312" y="834.28571428571445" width="20" height="20" />
	</g>
	<g>
		<rect x="270.00000000000011" y="192.85714285714289" width="20" height="20" />
	</g>
	<g>
		<rect x="1101.4285714285718" y="630.00000000000011" width="20" height="20" />
	</g>
	<g>
		<rect x="827.14285714285734" y="420.00000000000006" width="20" height="20" />
	</g>
	<g>
		<rect x="1271.4285714285718" y="680.00000000000011" width="20" height="20" />
	</g>
	<g>
		<rect x="225.71428571428578" y="50" width="20" height="20" />
	</g>
	<g>
		<rect x="434.28571428571445" y="604.28571428571445" width="20" height="20" />
	</g>
	<g>
		<rect x="1042.8571428571431" y="360.00000000000006" width="20" height="20" />
	</g>
	<g>
		<rect x="354.28571428571445" y="604.28571428571445" width="20" height="20" />
	</g>
	<g>
		<rect x="1231.4285714285718" y="1244.2857142857147" width="20" height="20" />
	</g>
	<g>
		<rect x="1181.4285714285718" y="460.00000000000011" width="20" height="20" />
	</g>
	<g>
		<rect x="394.28571428571445" y="824.28571428571445" width="20" height="20" />
	</g>
	<g>
		<rect x="190.00000000000011" y="420.00000000000006" width="20" height="20" />
	</g>
	<g>
		<rect x="388.57142857142867" y="984.28571428571445" width="20" height="20" />
	</g>
	<g>
		<rect x="722.85714285714312" y="714.28571428571445" width="20" height="20" />
	</g>
	<g>
		<rect x="1052.8571428571431" y="460.00000000000011" width="20" height="20" />
	</g>
	<g>
		<rect x="647.14285714285734" y="554.28571428571445" width="20" height="20" />
	</g>
	<g>
		<rect x="600.00000000000023" y="1084.2857142857144" width="20" height="20" />
	</g>
	<g>
		<rect x="971.42857142857167" y="870.00000000000023" width="20" height="20" />
	</g>
	<g>
		<rect x="982.85714285714312" y="360.00000000000006" width="20" height="20" />
	</g>
	<g>
		<rect x="975.71428571428601" y="550.00000000000011" width="20" height="20" />
	</g>
	<g>
		<rect x="747.14285714285734" y="420.00000000000006" width="20" height="20" />
	</g>
	<g>
		<rect x="394.28571428571445" y="604.28571428571445" width="20" height="20" />
	</g>
	<g>
		<rect x="441.42857142857156" y="944.28571428571445" width="20" height="20" />
	</g>
	<g>
		<rect x="952.85714285714312" y="420.00000000000006" width="20" height="20" />
	</g>
	<g>
		<rect x="841.42857142857167" y="100" width="20" height="20" />
	</g>
	<g>
		<rect x="891.42857142857167" y="754.28571428571445" width="20" height="20" />
	</g>
	<g>
		<rect x="197.14285714285722" y="1204.2857142857147" width="20" height="20" />
	</g>
	<g>
		<rect x="971.42857142857167" y="1084.2857142857144" width="20" height="20" />
	</g>
	<g>
		<rect x="600.00000000000023" y="1124.2857142857144" width="20" height="20" />
	</g>
	<g>
		<rect x="1011.4285714285717" y="1084.2857142857144" width="20" height="20" />
	</g>
	<g>
		<rect x="1050.0000000000002" y="680.00000000000011" width="20" height="20" />
	</g>
	<g>
		<rect x="735.71428571428589" y="360.00000000000006" width="20" height="20" />
	</g>
	<g>
		<rect x="1301.4285714285718" y="290.00000000000006" width="20" height="20" />
	</g>
	<g>
		<rect x="687.14285714285734" y="634.28571428571445" width="20" height="20" />
	</g>
	<g>
		<rect x="190.00000000000011" y="460.00000000000011" width="20" height="20" />
	</g>
</svg>
