<?xml version="1.0"?>
<svg xmlns="http://www.w3.org/2000/svg" xmlns:xlink="http://www.w3.org/1999/xlink" xmlns:ev="http://www.w3.org/2001/xml-events" version="1.1" baseProfile="full" viewBox="-1.05 -1.05 4.1 6.1">
	<g>
		<g>
			<polygon points="0.025,1.95,0.0317082,1.91981,0.0451246,1.92652," stroke="#000000" stroke-width="0.010000px" />
			<path fill="none" d=" M1,0 L0.025,1.95" stroke="#000000" stroke-width="0.010000px" />
		</g>
		<g>
			<polygon points="1.975,1.95,1.95488,1.92652,1.96829,1.91981," stroke="#000000" stroke-width="0.010000px" />
			<path fill="none" d=" M1,0 L1.975,1.95" stroke="#000000" stroke-width="0.010000px" />
		</g>
		<g>
			<polygon points="1.95,2,1.92,2.0075,1.92,1.9925," stroke="#000000" stroke-width="0.010000px" />
			<path fill="none" d=" M0,2 L1.95,2" stroke="#000000" stroke-width="0.010000px" />
		</g>
		<g>
			<polygon points="0.95,4,0.92,4.0075,0.92,3.9925," stroke="#000000" stroke-width="0.010000px" />
			<path fill="none" d=" M0,2 L0,4 M0,4 L0.95,4" stroke="#000000" stroke-width="0.010000px" />
		</g>
		<g>
			<polygon points="1,3.95,0.9925,3.92,1.0075,3.92," stroke="#000000" stroke-width="0.010000px" />
			<path fill="none" d=" M2,2 L2,3 M2,3 L1,3 M1,3 L1,3.92" stroke="#000000" stroke-width="0.010000px" />
		</g>
	</g>
	<g>
		<rect x="0.94999999999999996" y="-0.050000000000000003" width="0.10000000000000001" height="0.10000000000000001" />
	</g>
	<g>
		<rect x="-0.050000000000000003" y="1.95" width="0.10000000000000001" height="0.10000000000000001" />
	</g>
	<g>
		<rect x="1.95" y="1.95" width="0.10000000000000001" height="0.10000000000000001" />
	</g>
	<g>
		<rect x="0.94999999999999996" y="3.9500000000000002" width="0.10000000000000001" height="0.10000000000000001" />
	</g>
</svg>
