<?xml version="1.0"?>
<svg xmlns="http://www.w3.org/2000/svg" xmlns:xlink="http://www.w3.org/1999/xlink" xmlns:ev="http://www.w3.org/2001/xml-events" version="1.1" baseProfile="full" viewBox="-1 -11 212 262">
	<g>
		<g>
			<polygon points="110,160,105,161.25,105,158.75," stroke="#000000" />
			<path fill="none" d=" M40,240 L40,200 M40,200 L80,160 M80,160 L110,160" stroke="#000000" />
		</g>
		<g>
			<polygon points="190,240,185,241.25,185,238.75," stroke="#000000" />
			<path fill="none" d=" M40,240 L190,240" stroke="#000000" />
		</g>
		<g>
			<polygon points="70,0,65,1.25,65,-1.25," stroke="#000000" />
			<path fill="none" d=" M40,240 L0,240 M0,240 L0,0 M0,0 L70,0" stroke="#000000" />
		</g>
		<g>
			<polygon points="120,130,118.75,135,121.25,135," stroke="#000000" />
			<path fill="none" d=" M120,160 L120,135" stroke="#000000" />
		</g>
		<g>
			<polygon points="150,160,145,161.25,145,158.75," stroke="#000000" />
			<path fill="none" d=" M120,160 L150,160" stroke="#000000" />
		</g>
		<g>
			<polygon points="50,120,55,118.75,55,121.25," stroke="#000000" />
			<path fill="none" d=" M120,120 L50,120" stroke="#000000" />
		</g>
		<g>
			<polygon points="85,10,88.3541,13.9131,86.118,15.0312," stroke="#000000" />
			<path fill="none" d=" M120,120 L120,80 M120,80 L85,10" stroke="#000000" />
		</g>
		<g>
			<polygon points="40,130,38.75,135,41.25,135," stroke="#000000" />
			<path fill="none" d=" M200,200 L40,200 M40,200 L40,135" stroke="#000000" />
		</g>
		<g>
			<polygon points="200,170,198.75,175,201.25,175," stroke="#000000" />
			<path fill="none" d=" M200,200 L200,175" stroke="#000000" />
		</g>
		<g>
			<polygon points="200,230,198.75,225,201.25,225," stroke="#000000" />
			<path fill="none" d=" M200,200 L200,225" stroke="#000000" />
		</g>
		<g>
			<polygon points="190,160,185,161.25,185,158.75," stroke="#000000" />
			<path fill="none" d=" M160,160 L190,160" stroke="#000000" />
		</g>
		<g>
			<polygon points="90,5,95.0312,6.11803,93.9131,8.3541," stroke="#000000" />
			<path fill="none" d=" M160,160 L160,40 M160,40 L90,5" stroke="#000000" />
		</g>
		<g>
			<polygon points="70,10,67.3483,14.4194,65.5806,12.6517," stroke="#000000" />
			<path fill="none" d=" M40,120 L40,40 M40,40 L70,10" stroke="#000000" />
		</g>
		<g>
			<polygon points="90,0,95,-1.25,95,1.25," stroke="#000000" />
			<path fill="none" d=" M200,160 L200,0 M200,0 L90,0" stroke="#000000" />
		</g>
		<g>
			<polygon points="80,10,78.75,15,81.25,15," stroke="#000000" />
			<path fill="none" d=" M80,80 L80,15" stroke="#000000" />
		</g>
	</g>
	<g>
		<rect x="30" y="230" width="20" height="20" />
	</g>
	<g>
		<rect x="110" y="150" width="20" height="20" />
	</g>
	<g>
		<rect x="110" y="110" width="20" height="20" />
	</g>
	<g>
		<rect x="190" y="190" width="20" height="20" />
	</g>
	<g>
		<rect x="150" y="150" width="20" height="20" />
	</g>
	<g>
		<rect x="30" y="110" width="20" height="20" />
	</g>
	<g>
		<rect x="190" y="150" width="20" height="20" />
	</g>
	<g>
		<rect x="70" y="70" width="20" height="20" />
	</g>
	<g>
		<rect x="190" y="230" width="20" height="20" />
	</g>
	<g>
		<rect x="70" y="-10" width="20" height="20" />
	</g>
</svg>
