<?xml version="1.0"?>
<svg xmlns="http://www.w3.org/2000/svg" xmlns:xlink="http://www.w3.org/1999/xlink" xmlns:ev="http://www.w3.org/2001/xml-events" version="1.1" baseProfile="full" viewBox="-11 -11 1382 422">
	<g>
		<g>
			<path fill="none" d=" M360,40 L0,400" stroke="#000000" />
		</g>
		<g>
			<path fill="none" d=" M400,280 L360,240" stroke="#000000" />
		</g>
		<g>
			<path fill="none" d=" M840,200 L640,240" stroke="#000000" />
		</g>
		<g>
			<path fill="none" d=" M240,280 L400,280" stroke="#000000" />
		</g>
		<g>
			<path fill="none" d=" M80,360 L160,360" stroke="#000000" />
		</g>
		<g>
			<path fill="none" d=" M0,400 L80,360" stroke="#000000" />
		</g>
		<g>
			<path fill="none" d=" M1360,400 L160,360" stroke="#000000" />
		</g>
		<g>
			<path fill="none" d=" M320,120 L80,360" stroke="#000000" />
		</g>
		<g>
			<path fill="none" d=" M360,240 L280,240" stroke="#000000" />
		</g>
		<g>
			<path fill="none" d=" M880,160 L960,160" stroke="#000000" />
		</g>
		<g>
			<path fill="none" d=" M880,160 L840,120" stroke="#000000" />
		</g>
		<g>
			<path fill="none" d=" M600,280 L480,280" stroke="#000000" />
		</g>
		<g>
			<path fill="none" d=" M1160,200 L1120,240" stroke="#000000" />
		</g>
		<g>
			<path fill="none" d=" M760,120 L840,120" stroke="#000000" />
		</g>
		<g>
			<path fill="none" d=" M1200,320 L760,280" stroke="#000000" />
		</g>
		<g>
			<path fill="none" d=" M0,400 L120,400" stroke="#000000" />
		</g>
		<g>
			<path fill="none" d=" M1120,240 L1200,320" stroke="#000000" />
		</g>
		<g>
			<path fill="none" d=" M1120,240 L880,240" stroke="#000000" />
		</g>
		<g>
			<path fill="none" d=" M1360,400 L1200,320" stroke="#000000" />
		</g>
		<g>
			<path fill="none" d=" M160,360 L240,280" stroke="#000000" />
		</g>
		<g>
			<path fill="none" d=" M600,280 L360,40" stroke="#000000" />
		</g>
		<g>
			<path fill="none" d=" M880,240 L640,240" stroke="#000000" />
		</g>
		<g>
			<path fill="none" d=" M1080,200 L840,200" stroke="#000000" />
		</g>
		<g>
			<path fill="none" d=" M640,240 L760,120" stroke="#000000" />
		</g>
		<g>
			<path fill="none" d=" M840,200 L880,160" stroke="#000000" />
		</g>
		<g>
			<path fill="none" d=" M640,240 L600,280" stroke="#000000" />
		</g>
		<g>
			<path fill="none" d=" M440,320 L400,280" stroke="#000000" />
		</g>
		<g>
			<path fill="none" d=" M1160,200 L1360,400" stroke="#000000" />
		</g>
		<g>
			<path fill="none" d=" M960,0 L1160,200" stroke="#000000" />
		</g>
		<g>
			<path fill="none" d=" M280,240 L240,280" stroke="#000000" />
		</g>
		<g>
			<path fill="none" d=" M1040,160 L1080,200" stroke="#000000" />
		</g>
		<g>
			<path fill="none" d=" M480,280 L320,120" stroke="#000000" />
		</g>
		<g>
			<path fill="none" d=" M1200,320 L440,320" stroke="#000000" />
		</g>
		<g>
			<path fill="none" d=" M160,360 L440,320" stroke="#000000" />
		</g>
		<g>
			<path fill="none" d=" M120,400 L1360,400" stroke="#000000" />
		</g>
		<g>
			<path fill="none" d=" M440,320 L480,280" stroke="#000000" />
		</g>
		<g>
			<path fill="none" d=" M960,160 L1040,160" stroke="#000000" />
		</g>
		<g>
			<path fill="none" d=" M760,280 L600,280" stroke="#000000" />
		</g>
		<g>
			<path fill="none" d=" M1080,200 L1120,240" stroke="#000000" />
		</g>
		<g>
			<path fill="none" d=" M840,120 L960,0" stroke="#000000" />
		</g>
	</g>
	<g>
		<rect x="-10" y="390" width="20" height="20" />
	</g>
	<g>
		<rect x="230" y="270" width="20" height="20" />
	</g>
	<g>
		<rect x="1150" y="190" width="20" height="20" />
	</g>
	<g>
		<rect x="830" y="190" width="20" height="20" />
	</g>
	<g>
		<rect x="270" y="230" width="20" height="20" />
	</g>
	<g>
		<rect x="1350" y="390" width="20" height="20" />
	</g>
	<g>
		<rect x="430" y="310" width="20" height="20" />
	</g>
	<g>
		<rect x="390" y="270" width="20" height="20" />
	</g>
	<g>
		<rect x="310" y="110" width="20" height="20" />
	</g>
	<g>
		<rect x="750" y="270" width="20" height="20" />
	</g>
	<g>
		<rect x="150" y="350" width="20" height="20" />
	</g>
	<g>
		<rect x="950" y="-10" width="20" height="20" />
	</g>
	<g>
		<rect x="630" y="230" width="20" height="20" />
	</g>
	<g>
		<rect x="830" y="110" width="20" height="20" />
	</g>
	<g>
		<rect x="750" y="110" width="20" height="20" />
	</g>
	<g>
		<rect x="470" y="270" width="20" height="20" />
	</g>
	<g>
		<rect x="110" y="390" width="20" height="20" />
	</g>
	<g>
		<rect x="1030" y="150" width="20" height="20" />
	</g>
	<g>
		<rect x="1110" y="230" width="20" height="20" />
	</g>
	<g>
		<rect x="1070" y="190" width="20" height="20" />
	</g>
	<g>
		<rect x="590" y="270" width="20" height="20" />
	</g>
	<g>
		<rect x="870" y="230" width="20" height="20" />
	</g>
	<g>
		<rect x="1190" y="310" width="20" height="20" />
	</g>
	<g>
		<rect x="350" y="30" width="20" height="20" />
	</g>
	<g>
		<rect x="350" y="230" width="20" height="20" />
	</g>
	<g>
		<rect x="950" y="150" width="20" height="20" />
	</g>
	<g>
		<rect x="870" y="150" width="20" height="20" />
	</g>
	<g>
		<rect x="70" y="350" width="20" height="20" />
	</g>
</svg>
